<svg xmlns="http://www.w3.org/2000/svg" id="Calque_1" viewBox="0 0 143.4 142.5"><style>.st0{fill:#FFED00;}</style><path class="st0" d="M65.7 18.6l6-4.4 6 4.4-2.3-7.1 6.1-4.4H74L71.7 0l-2.3 7.2-7.5-.1 6.1 4.4zM34.8 26.9l6-4.4 5.9 4.4-2.2-7.1 6-4.3H43l-2.2-7.2-2.3 7.2H31l6 4.3zM18.1 31l-2.3 7.2H8.3l6.1 4.3-2.3 7.1 6-4.4 6 4.4-2.3-7.1 6.1-4.3h-7.5zM9.8 76.2l6 4.3-2.3-7 6.1-4.4h-7.5L9.8 62l-2.3 7.1H0l6.1 4.4-2.3 7zM20.4 100.1L18.1 93l-2.3 7.1H8.3l6.1 4.4-2.3 7.1 6-4.4 6 4.4-2.3-7.1 6.1-4.4zM43.1 122.8l-2.3-7.1-2.3 7.1H31l6.1 4.4-2.3 7.1 6-4.4 6 4.4-2.3-7.1 6.1-4.4zM74 131.1l-2.3-7.2-2.3 7.2h-7.5l6.1 4.3-2.2 7.1 5.9-4.4 6 4.4-2.3-7.1 6.1-4.3zM105 122.8l-2.3-7.1-2.3 7.1h-7.5l6.1 4.4-2.3 7.1 6-4.4 5.9 4.4-2.2-7.1 6-4.4zM127.7 100.1l-2.3-7.1-2.3 7.1h-7.5l6.1 4.4-2.3 7.1 6-4.4 6 4.4-2.3-7.1 6-4.4zM143.4 69h-7.5l-2.3-7.1-2.3 7.1h-7.5l6.1 4.4-2.3 7.1 6-4.4 6 4.4-2.3-7.1zM119.4 49.5l6-4.4 6 4.4-2.3-7 6-4.4h-7.4l-2.3-7.2-2.3 7.2h-7.5l6.1 4.4zM102.8 8.3l-2.3 7.2H93l6 4.3-2.2 7.1 6-4.4 5.9 4.4-2.2-7.1 6-4.3H105z"/></svg>